<?xml version="1.0" encoding="iso-8859-1"?>
<!-- Uploaded to: SVG Repo, www.svgrepo.com, Generator: SVG Repo Mixer Tools -->
<svg fill="#000000" version="1.1" id="Layer_1" xmlns="http://www.w3.org/2000/svg" xmlns:xlink="http://www.w3.org/1999/xlink" 
	 viewBox="0 0 491.52 491.52" xml:space="preserve">
<g>
	<g>
		<path d="M0,0v378.88h81.92v112.64h280.155L399.9,378.88h91.62V0H0z M347.345,471.04H106.66l50.885-143.36H395.49L347.345,471.04z
			 M102.4,421.82V245.76h82.25l36.93,30.72H358.4v30.72H143.085L102.4,421.82z M471.04,358.4h-64.263l17.193-51.2h-45.09V256h-149.9
			l-36.93-30.72H81.92V358.4H20.48v-256h450.56V358.4z M471.04,81.92H20.48V20.48h450.56V81.92z"/>
	</g>
</g>
<g>
	<g>
		<rect x="348.16" y="40.96" width="20.48" height="20.48"/>
	</g>
</g>
<g>
	<g>
		<rect x="430.08" y="40.96" width="20.48" height="20.48"/>
	</g>
</g>
<g>
	<g>
		<rect x="389.12" y="40.96" width="20.48" height="20.48"/>
	</g>
</g>
<g>
	<g>
		<rect x="51.2" y="40.96" width="245.76" height="20.48"/>
	</g>
</g>
<g>
	<g>
		<rect x="225.28" y="430.08" width="20.48" height="20.48"/>
	</g>
</g>
<g>
	<g>
		<rect x="307.2" y="430.08" width="20.48" height="20.48"/>
	</g>
</g>
<g>
	<g>
		<rect x="266.24" y="430.08" width="20.48" height="20.48"/>
	</g>
</g>
</svg>