<?xml version="1.0" encoding="iso-8859-1"?>
<!-- Uploaded to: SVG Repo, www.svgrepo.com, Generator: SVG Repo Mixer Tools -->
<svg fill="#000000" height="800px" width="800px" version="1.1" id="Layer_1" xmlns="http://www.w3.org/2000/svg" xmlns:xlink="http://www.w3.org/1999/xlink" 
	 viewBox="0 0 491.52 491.52" xml:space="preserve">
<g>
	<g>
		<path d="M491.52,399.36V20.48H0v378.88h153.6v51.2h-40.96v20.48h266.24v-20.48h-40.96v-51.2H491.52z M20.48,40.96h450.56v276.48
			H20.48V40.96z M317.44,450.56H174.08v-51.2h143.36V450.56z M20.48,378.88v-40.96h450.56v40.96H20.48z"/>
	</g>
</g>
<g>
	<g>
		<polygon points="102.4,133.12 102.4,61.44 81.92,61.44 81.92,71.68 71.68,71.68 71.68,92.16 81.92,92.16 81.92,133.12 
			71.68,133.12 71.68,153.6 112.64,153.6 112.64,133.12 		"/>
	</g>
</g>
<g>
	<g>
		<polygon points="256,133.12 256,61.44 235.52,61.44 235.52,71.68 225.28,71.68 225.28,92.16 235.52,92.16 235.52,133.12 
			225.28,133.12 225.28,153.6 266.24,153.6 266.24,133.12 		"/>
	</g>
</g>
<g>
	<g>
		<polygon points="327.68,133.12 327.68,61.44 307.2,61.44 307.2,71.68 296.96,71.68 296.96,92.16 307.2,92.16 307.2,133.12 
			296.96,133.12 296.96,153.6 337.92,153.6 337.92,133.12 		"/>
	</g>
</g>
<g>
	<g>
		<path d="M163.84,61.44c-16.94,0-30.72,13.78-30.72,30.72v30.72c0,16.94,13.78,30.72,30.72,30.72s30.72-13.78,30.72-30.72V92.16
			C194.56,75.22,180.78,61.44,163.84,61.44z M174.08,122.88c0,5.65-4.595,10.24-10.24,10.24c-5.645,0-10.24-4.59-10.24-10.24V92.16
			c0-5.65,4.595-10.24,10.24-10.24c5.645,0,10.24,4.59,10.24,10.24V122.88z"/>
	</g>
</g>
<g>
	<g>
		<path d="M389.12,61.44c-16.94,0-30.72,13.78-30.72,30.72v30.72c0,16.94,13.78,30.72,30.72,30.72s30.72-13.78,30.72-30.72V92.16
			C419.84,75.22,406.06,61.44,389.12,61.44z M399.36,122.88c0,5.65-4.595,10.24-10.24,10.24c-5.645,0-10.24-4.59-10.24-10.24V92.16
			c0-5.65,4.595-10.24,10.24-10.24c5.645,0,10.24,4.59,10.24,10.24V122.88z"/>
	</g>
</g>
<g>
	<g>
		<polygon points="102.4,266.24 102.4,194.56 81.92,194.56 81.92,204.8 71.68,204.8 71.68,225.28 81.92,225.28 81.92,266.24 
			71.68,266.24 71.68,286.72 112.64,286.72 112.64,266.24 		"/>
	</g>
</g>
<g>
	<g>
		<polygon points="174.08,266.24 174.08,194.56 153.6,194.56 153.6,204.8 143.36,204.8 143.36,225.28 153.6,225.28 153.6,266.24 
			143.36,266.24 143.36,286.72 184.32,286.72 184.32,266.24 		"/>
	</g>
</g>
<g>
	<g>
		<polygon points="327.68,266.24 327.68,194.56 307.2,194.56 307.2,204.8 296.96,204.8 296.96,225.28 307.2,225.28 307.2,266.24 
			296.96,266.24 296.96,286.72 337.92,286.72 337.92,266.24 		"/>
	</g>
</g>
<g>
	<g>
		<path d="M245.76,194.56c-16.94,0-30.72,13.78-30.72,30.72V256c0,16.94,13.78,30.72,30.72,30.72s30.72-13.78,30.72-30.72v-30.72
			C276.48,208.34,262.7,194.56,245.76,194.56z M256,256c0,5.65-4.595,10.24-10.24,10.24s-10.24-4.59-10.24-10.24v-30.72
			c0-5.65,4.595-10.24,10.24-10.24S256,219.63,256,225.28V256z"/>
	</g>
</g>
<g>
	<g>
		<path d="M389.12,194.56c-16.94,0-30.72,13.78-30.72,30.72V256c0,16.94,13.78,30.72,30.72,30.72s30.72-13.78,30.72-30.72v-30.72
			C419.84,208.34,406.06,194.56,389.12,194.56z M399.36,256c0,5.65-4.595,10.24-10.24,10.24c-5.645,0-10.24-4.59-10.24-10.24v-30.72
			c0-5.65,4.595-10.24,10.24-10.24c5.645,0,10.24,4.59,10.24,10.24V256z"/>
	</g>
</g>
</svg>