<?xml version="1.0" encoding="iso-8859-1"?>
<!-- Uploaded to: SVG Repo, www.svgrepo.com, Generator: SVG Repo Mixer Tools -->
<svg fill="#000000" version="1.1" id="Layer_1" xmlns="http://www.w3.org/2000/svg" xmlns:xlink="http://www.w3.org/1999/xlink" 
	 viewBox="0 0 491.52 491.52" xml:space="preserve">
<g>
	<g>
		<path d="M471.04,348.16V40.96H20.48v307.2H0v55.44l46.96,46.96h397.6l46.96-46.96v-55.44H471.04z M40.96,61.44h409.6V204.8h-99.09
			l-14.15,35.37l-50.16-110.35l-37.49,74.98h-62.21l-22.17,59.125L113.02,75.74L74.3,204.8H40.96V61.44z M40.96,225.28h48.58
			l22.72-75.74l50.13,180.455l39.27-104.715h60.67l23.95-47.9l52.24,114.93l26.81-67.03h85.23v122.88H40.96V225.28z M471.04,395.12
			l-34.96,34.96H55.44l-34.96-34.96v-26.48h450.56V395.12z"/>
	</g>
</g>
<g>
	<g>
		<rect x="235.52" y="389.12" width="20.48" height="20.48"/>
	</g>
</g>
<g>
	<g>
		<rect x="276.48" y="389.12" width="20.48" height="20.48"/>
	</g>
</g>
<g>
	<g>
		<rect x="194.56" y="389.12" width="20.48" height="20.48"/>
	</g>
</g>
</svg>