<?xml version="1.0" encoding="iso-8859-1"?>
<!-- Uploaded to: SVG Repo, www.svgrepo.com, Generator: SVG Repo Mixer Tools -->
<svg fill="#000000" version="1.1" id="Layer_1" xmlns="http://www.w3.org/2000/svg" xmlns:xlink="http://www.w3.org/1999/xlink" 
	 viewBox="0 0 491.52 491.52" xml:space="preserve">
<g>
	<g>
		<path d="M61.44,81.92v143.36h368.64V81.92H61.44z M360.047,102.4L245.76,142.736L131.473,102.4H360.047z M81.92,106.638
			L214.98,153.6L81.92,200.563V106.638z M131.473,204.8l114.287-40.336L360.047,204.8H131.473z M409.6,200.563L276.54,153.6
			l133.06-46.962V200.563z"/>
	</g>
</g>
<g>
	<g>
		<path d="M471.04,348.16V40.96H20.48v307.2H0v55.44l46.96,46.96h397.6l46.96-46.96v-55.44H471.04z M40.96,61.44h409.6v286.72H40.96
			V61.44z M471.04,395.12l-34.96,34.96H55.44l-34.96-34.96v-26.48h450.56V395.12z"/>
	</g>
</g>
<g>
	<g>
		<rect x="235.52" y="389.12" width="20.48" height="20.48"/>
	</g>
</g>
<g>
	<g>
		<rect x="276.48" y="389.12" width="20.48" height="20.48"/>
	</g>
</g>
<g>
	<g>
		<rect x="194.56" y="389.12" width="20.48" height="20.48"/>
	</g>
</g>
<g>
	<g>
		<path d="M61.44,245.76v81.92h112.64v-81.92H61.44z M153.6,307.2H81.92v-40.96h71.68V307.2z"/>
	</g>
</g>
<g>
	<g>
		<path d="M194.56,245.76v81.92H307.2v-81.92H194.56z M286.72,307.2h-71.68v-40.96h71.68V307.2z"/>
	</g>
</g>
<g>
	<g>
		<path d="M327.68,245.76v81.92h112.64v-81.92H327.68z M419.84,307.2h-71.68v-40.96h71.68V307.2z"/>
	</g>
</g>
</svg>