<?xml version="1.0" encoding="iso-8859-1"?>
<!-- Uploaded to: SVG Repo, www.svgrepo.com, Generator: SVG Repo Mixer Tools -->
<svg fill="#000000" height="800px" width="800px" version="1.1" id="Layer_1" xmlns="http://www.w3.org/2000/svg" xmlns:xlink="http://www.w3.org/1999/xlink" 
	 viewBox="0 0 491.52 491.52" xml:space="preserve">
<g>
	<g>
		<path d="M491.52,419.84V0H0v419.84h153.6v51.2h-40.96v20.48h266.24v-20.48h-40.96v-51.2H491.52z M20.48,20.48h450.56v327.68H20.48
			V20.48z M317.44,471.04H174.08v-51.2h143.36V471.04z M20.48,399.36v-30.72h450.56v30.72H20.48z"/>
	</g>
</g>
<g>
	<g>
		<path d="M40.96,40.96v153.6h194.56V40.96H40.96z M195.037,61.44l-56.797,43.434L81.442,61.44H195.037z M61.44,71.917
			l59.949,45.843L61.44,163.603V71.917z M81.442,174.08l56.797-43.434l56.797,43.434H81.442z M215.04,163.603l-59.949-45.843
			l59.949-45.843V163.603z"/>
	</g>
</g>
<g>
	<g>
		<path d="M256,40.96v153.6h194.56V40.96H256z M410.078,61.44l-56.797,43.434L296.482,61.44H410.078z M276.48,71.917l59.949,45.843
			l-59.949,45.843V71.917z M296.482,174.08l56.798-43.434l56.797,43.434H296.482z M430.08,163.603l-59.949-45.843l59.949-45.843
			V163.603z"/>
	</g>
</g>
<g>
	<g>
		<path d="M40.96,215.04v112.64h409.6V215.04H40.96z M430.08,307.2H61.44v-71.68h368.64V307.2z"/>
	</g>
</g>
</svg>