<?xml version="1.0" encoding="iso-8859-1"?>
<!-- Uploaded to: SVG Repo, www.svgrepo.com, Generator: SVG Repo Mixer Tools -->
<svg fill="#000000" height="800px" width="800px" version="1.1" id="Layer_1" xmlns="http://www.w3.org/2000/svg" xmlns:xlink="http://www.w3.org/1999/xlink" 
	 viewBox="0 0 491.52 491.52" xml:space="preserve">
<g>
	<g>
		<path d="M491.52,285.155v-78.79l-57.55-9.59c-4.49-17.295-11.37-33.86-20.53-49.405l33.95-47.53l-55.71-55.715l-47.52,33.95
			c-15.54-9.145-32.11-16.025-49.41-20.525L285.15,0h-78.78l-9.6,57.55c-17.3,4.5-33.87,11.38-49.41,20.525l-47.53-33.95
			L44.13,99.84l33.95,47.53c-9.16,15.545-16.04,32.11-20.53,49.405L0,206.365v78.79l57.55,9.59
			c4.49,17.31,11.38,33.875,20.53,49.405l-33.95,47.53l55.7,55.715l47.53-33.95c15.55,9.15,32.11,16.035,49.41,20.525l9.6,57.55
			h78.78l9.6-57.55c17.3-4.49,33.86-11.375,49.41-20.525l47.52,33.95l55.71-55.715l-33.95-47.53
			c9.16-15.545,16.04-32.11,20.53-49.405L491.52,285.155z M415.6,283.545c-4.35,19.65-12.11,38.335-23.07,55.54l-3.71,5.825
			l31.83,44.56l-31.19,31.175l-44.54-31.825l-5.83,3.715c-17.2,10.955-35.89,18.715-55.54,23.065l-6.75,1.495l-8.99,53.945h-44.1
			l-8.99-53.945l-6.75-1.495c-19.65-4.35-38.34-12.11-55.54-23.065l-5.83-3.715l-44.55,31.825L70.87,389.47l31.83-44.56l-3.72-5.83
			c-10.95-17.175-18.71-35.86-23.06-55.535l-1.5-6.75l-53.94-8.99v-44.09l53.94-8.99l1.5-6.75c4.35-19.65,12.11-38.335,23.07-55.54
			l3.71-5.825l-31.83-44.56l31.18-31.175L146.6,102.7l5.83-3.715c17.19-10.95,35.88-18.71,55.54-23.065l6.75-1.5l8.99-53.94h44.1
			l8.99,53.94l6.75,1.5c19.66,4.355,38.35,12.115,55.54,23.065l5.83,3.715l44.54-31.825l31.19,31.175l-31.83,44.56l3.71,5.825
			c10.96,17.205,18.72,35.89,23.07,55.54l1.5,6.75l53.94,8.99v44.09l-53.94,8.99L415.6,283.545z"/>
	</g>
</g>
<g>
	<g>
		<path d="M245.76,102.4c-79.05,0-143.36,64.31-143.36,143.36s64.31,143.36,143.36,143.36s143.36-64.31,143.36-143.36
			S324.81,102.4,245.76,102.4z M256,123.399c59.59,4.951,107.171,52.536,112.121,112.121H256V123.399z M122.88,245.76
			c0-64.299,49.665-117.129,112.64-122.361V241.52l-83.504,83.504C133.878,303.606,122.88,275.959,122.88,245.76z M245.76,368.64
			c-30.201,0-57.847-10.997-79.264-29.136L250,256h118.121C362.889,318.971,310.063,368.64,245.76,368.64z"/>
	</g>
</g>
</svg>