<?xml version="1.0" encoding="iso-8859-1"?>
<!-- Uploaded to: SVG Repo, www.svgrepo.com, Generator: SVG Repo Mixer Tools -->
<svg fill="#000000" height="800px" width="800px" version="1.1" id="Layer_1" xmlns="http://www.w3.org/2000/svg" xmlns:xlink="http://www.w3.org/1999/xlink" 
	 viewBox="0 0 491.52 491.52" xml:space="preserve">
<g>
	<g>
		<path d="M245.76,271.58c-36.575,0-66.335,29.76-66.335,66.34s29.76,66.34,66.335,66.34c36.58,0,66.34-29.76,66.34-66.34
			C312.1,301.34,282.34,271.58,245.76,271.58z M245.76,383.78c-25.285,0-45.855-20.57-45.855-45.86
			c0-25.29,20.57-45.86,45.855-45.86s45.86,20.57,45.86,45.86S271.045,383.78,245.76,383.78z"/>
	</g>
</g>
<g>
	<g>
		<path d="M422.44,148.91c4.11-12.59,5.55-25.42,4.63-40.27C423.41,49.22,370.475,0.48,309.065,0c-0.315,0-0.62,0-0.93,0
			c-49.57,0-93.79,30.23-111.25,74.14C178.7,59.75,155.22,52.73,131.3,54.96c-33.03,3.09-61.925,25.11-75.415,57.47
			c-6.685,16.02-5.43,33.96-3.845,44.15C20.18,174.63,0,208.79,0,245.76c0,53.004,40.486,96.724,92.16,101.881v17.649l35.845,5.98
			c2.59,9.15,6.25,17.96,10.93,26.3l-21.14,29.61l38.715,38.7l29.6-21.13c8.35,4.68,17.155,8.34,26.305,10.93l5.975,35.84h54.745
			l5.975-35.84c9.15-2.59,17.955-6.25,26.31-10.93l29.595,21.13l38.715-38.7l-21.14-29.61c4.68-8.34,8.34-17.15,10.93-26.3
			l35.84-5.98v-17.649c51.674-5.156,92.16-48.877,92.16-101.881C491.52,201.95,463.095,162.95,422.44,148.91z M346.725,353.31
			l-1.495,6.75c-2.545,11.51-7.09,22.45-13.505,32.5l-3.715,5.83l18.97,26.57l-14.175,14.18l-26.565-18.97l-5.83,3.72
			c-10.065,6.41-21.005,10.96-32.51,13.5l-6.755,1.5l-5.36,32.15H235.74l-5.36-32.15l-6.755-1.5
			c-11.505-2.54-22.445-7.09-32.51-13.5l-5.83-3.72l-26.565,18.97l-14.175-14.18l18.97-26.57l-3.715-5.83
			c-6.415-10.05-10.96-20.99-13.505-32.5l-1.495-6.75l-32.16-5.36v-20.06l32.16-5.36l1.495-6.75
			c2.545-11.51,7.09-22.45,13.505-32.52l3.715-5.83l-18.97-26.55l14.175-14.18l26.565,18.97l5.83-3.72
			c10.045-6.4,20.985-10.94,32.52-13.5l6.745-1.5l5.36-32.15h20.045l5.36,32.15l6.745,1.5c11.535,2.56,22.475,7.1,32.52,13.5
			l5.83,3.72l26.565-18.97l14.175,14.18l-18.97,26.55l3.715,5.83c6.415,10.07,10.96,21.01,13.505,32.52l1.495,6.75l32.155,5.36
			v20.06h0L346.725,353.31z M399.36,326.969V310.55l-35.84-5.98c-2.59-9.15-6.25-17.96-10.935-26.31l21.145-29.6l-38.715-38.7
			l-29.6,21.13c-8.34-4.67-17.145-8.33-26.305-10.93l-5.975-35.84H218.39l-5.975,35.84c-9.16,2.6-17.965,6.26-26.305,10.93
			l-29.6-21.13l-38.715,38.7l21.145,29.6c-4.685,8.35-8.345,17.16-10.935,26.31l-35.845,5.98v16.419
			c-40.345-5.065-71.68-39.514-71.68-81.209c0-31.75,18.615-60.93,47.425-74.32l7.78-3.65l-2.21-8.3
			c-0.06-0.22-5.775-22.18,1.31-39.18c10.57-25.35,32.955-42.57,58.43-44.95c23.25-2.21,45.98,6.88,60.695,24.26l13.27,15.67
			l4.53-20.03c9.84-43.44,50.315-74.78,96.42-74.78c0.26,0,0.515,0,0.775,0c50.875,0.4,94.71,40.51,97.725,89.42
			c0.97,15.69-1.235,28.52-7.14,41.59l-5.21,11.53l12.36,2.7c37.315,8.12,64.4,41.78,64.4,80.04
			C471.04,287.455,439.705,321.904,399.36,326.969z"/>
	</g>
</g>
</svg>